<svg width="20" height="18" viewBox="0 0 20 18" fill="none" xmlns="http://www.w3.org/2000/svg">
<path d="M18.7701 11.1752H1.22949C0.711523 11.1752 0.291992 11.5948 0.291992 12.1127C0.291992 12.3096 0.35293 12.4924 0.456055 12.6424C0.500586 12.7479 0.568555 12.8463 0.65293 12.933L4.78496 17.0627C4.96777 17.2455 5.20684 17.3369 5.44824 17.3369C5.68965 17.3369 5.92871 17.2455 6.11152 17.0627C6.47715 16.6971 6.47715 16.1041 6.11152 15.7362L3.4209 13.0502H18.7678C19.2857 13.0502 19.7053 12.6307 19.7053 12.1127C19.7053 11.5948 19.2881 11.1752 18.7701 11.1752ZM1.22949 6.82523H18.7701C19.2881 6.82523 19.7076 6.4057 19.7076 5.88773C19.7076 5.69085 19.6467 5.50804 19.5436 5.35804C19.5107 5.2807 19.4639 5.2057 19.4076 5.13539L16.0279 1.0057C15.6998 0.604916 15.1092 0.546323 14.7084 0.874448C14.3076 1.20257 14.249 1.7932 14.5771 2.19398L16.8342 4.95023H1.22949C0.711523 4.95023 0.291992 5.36976 0.291992 5.88773C0.291992 6.4057 0.711523 6.82523 1.22949 6.82523Z" fill="white"/>
</svg>
