<svg width="1440" height="273" viewBox="0 0 1440 273" fill="none" xmlns="http://www.w3.org/2000/svg">
<path opacity="0.6" d="M1486.25 136.5C1486.25 145.616 1481.06 154.628 1470.93 163.444C1460.79 172.255 1445.81 180.79 1426.43 188.941C1387.7 205.24 1331.6 219.935 1262.22 232.282C1123.47 256.973 931.771 272.25 720 272.25C508.229 272.25 316.525 256.973 177.781 232.282C108.402 219.935 52.3028 205.24 13.5655 188.941C-5.8062 180.79 -20.7932 172.255 -30.9251 163.444C-41.0614 154.628 -46.25 145.616 -46.25 136.5C-46.25 127.384 -41.0614 118.372 -30.9251 109.556C-20.7932 100.745 -5.8062 92.2102 13.5655 84.0593C52.3028 67.7603 108.402 53.0653 177.781 40.7183C316.525 16.0265 508.229 0.75 720 0.75C931.771 0.75 1123.47 16.0265 1262.22 40.7183C1331.6 53.0653 1387.7 67.7603 1426.43 84.0593C1445.81 92.2102 1460.79 100.745 1470.93 109.556C1481.06 118.372 1486.25 127.384 1486.25 136.5Z" stroke="url(#paint0_linear_74_17142)" stroke-width="1.5"/>
<defs>
<linearGradient id="paint0_linear_74_17142" x1="720" y1="0" x2="720" y2="273" gradientUnits="userSpaceOnUse">
<stop stop-color="#424242" stop-opacity="0"/>
<stop offset="0.771169" stop-color="#424242" stop-opacity="0"/>
<stop offset="1" stop-color="#424242"/>
</linearGradient>
</defs>
</svg>
