<svg width="20" height="21" viewBox="0 0 20 21" fill="none" xmlns="http://www.w3.org/2000/svg">
<path opacity="0.4" d="M14.0756 0.544922H17.4616C18.8639 0.544922 20.0001 1.69077 20.0001 3.10489V6.51945C20.0001 7.93356 18.8639 9.07941 17.4616 9.07941H14.0756C12.6734 9.07941 11.5371 7.93356 11.5371 6.51945V3.10489C11.5371 1.69077 12.6734 0.544922 14.0756 0.544922Z" fill="#525252"/>
<path fillRule="evenodd" clipRule="evenodd" d="M2.53852 0.544922H5.92449C7.32676 0.544922 8.46301 1.69077 8.46301 3.10489V6.51945C8.46301 7.93356 7.32676 9.07941 5.92449 9.07941H2.53852C1.13626 9.07941 0 7.93356 0 6.51945V3.10489C0 1.69077 1.13626 0.544922 2.53852 0.544922ZM2.53852 12.0104H5.92449C7.32676 12.0104 8.46301 13.1563 8.46301 14.5704V17.985C8.46301 19.3981 7.32676 20.5449 5.92449 20.5449H2.53852C1.13626 20.5449 0 19.3981 0 17.985V14.5704C0 13.1563 1.13626 12.0104 2.53852 12.0104ZM17.4615 12.0104H14.0755C12.6732 12.0104 11.537 13.1563 11.537 14.5704V17.985C11.537 19.3981 12.6732 20.5449 14.0755 20.5449H17.4615C18.8637 20.5449 20 19.3981 20 17.985V14.5704C20 13.1563 18.8637 12.0104 17.4615 12.0104Z" fill="#525252"/>
</svg>
