<svg width="24" height="25" viewBox="0 0 24 25" fill="none" xmlns="http://www.w3.org/2000/svg">
<g clipPath="url(#clip0_0_16480)">
<path d="M15.5451 6.58235V24.2114H0.363281V3.31689H12.2796L15.5451 6.58235Z" fill="#525252"/>
<path d="M17.8185 4.20442V21.8335H2.63672V0.938965H14.5531L17.8185 4.20442Z" fill="#EEEEEE"/>
<path d="M17.8182 4.20442H14.5527V0.938965L17.8182 4.20442Z" fill="#525252"/>
<path d="M5.625 8.88428H14.8323V9.58973H5.625V8.88428ZM5.625 13.6225H14.8323V14.3279H5.625V13.6225ZM5.625 15.9897H14.8323V16.6952H5.625V15.9897ZM5.625 11.2552H14.8323V11.9606H5.625V11.2552ZM5.625 18.3606H14.8323V19.0661H5.625V18.3606Z" fill="#525252"/>
<path d="M6.52709 5.70256L6.68709 5.74256C6.65436 5.87347 6.59254 5.97165 6.50891 6.04074C6.42527 6.10983 6.31618 6.14256 6.19254 6.14256C6.06163 6.14256 5.95618 6.11711 5.87618 6.06256C5.79618 6.00802 5.73436 5.93165 5.69072 5.83347C5.64709 5.73529 5.62891 5.6262 5.62891 5.50983C5.62891 5.3862 5.65436 5.27711 5.70163 5.18256C5.74891 5.08802 5.818 5.01893 5.90527 4.97165C5.99254 4.92438 6.09072 4.89893 6.19618 4.89893C6.31618 4.89893 6.418 4.92802 6.498 4.98983C6.58163 5.05165 6.63618 5.13529 6.66891 5.24802L6.51254 5.28438C6.48345 5.19711 6.44345 5.13165 6.39254 5.09165C6.34163 5.05165 6.27254 5.03347 6.19254 5.03347C6.10163 5.03347 6.02163 5.05529 5.95982 5.09893C5.898 5.14256 5.85436 5.20438 5.82891 5.27711C5.80345 5.35347 5.79254 5.42983 5.79254 5.5062C5.79254 5.60802 5.80709 5.69893 5.83618 5.77529C5.86116 5.84648 5.90998 5.90686 5.97436 5.9462C6.03618 5.98256 6.10527 6.00438 6.178 6.00438C6.26527 6.00438 6.34163 5.97893 6.40345 5.92802C6.46163 5.88074 6.50527 5.80438 6.52709 5.70256ZM6.83254 5.53893C6.83254 5.33893 6.88709 5.18256 6.99254 5.06983C7.098 4.95711 7.23982 4.89893 7.40709 4.89893C7.51982 4.89893 7.618 4.92438 7.70891 4.97893C7.79618 5.03347 7.86527 5.1062 7.91254 5.20074C7.95982 5.29529 7.98163 5.40438 7.98163 5.52438C7.98163 5.64438 7.95618 5.75347 7.90891 5.85165C7.858 5.9462 7.78891 6.01893 7.70163 6.06983C7.61436 6.12074 7.51254 6.14256 7.41072 6.14256C7.298 6.14256 7.19618 6.11347 7.10891 6.05893C7.02163 6.00438 6.95254 5.92802 6.90527 5.83347C6.85436 5.74256 6.83254 5.64438 6.83254 5.53893ZM6.99618 5.53893C6.99618 5.68438 7.03618 5.79711 7.11254 5.88074C7.18891 5.96438 7.28709 6.00438 7.40709 6.00438C7.52709 6.00438 7.62527 5.96074 7.70163 5.87711C7.778 5.79347 7.818 5.67347 7.818 5.51711C7.818 5.41893 7.79982 5.33529 7.76709 5.26256C7.73436 5.18983 7.68709 5.13165 7.62163 5.09165C7.55618 5.05165 7.48709 5.02983 7.40709 5.02983C7.29436 5.02983 7.19618 5.06983 7.11618 5.1462C7.03618 5.22256 6.99618 5.36074 6.99618 5.53893ZM8.18527 6.12438V4.92438H8.34891L8.98163 5.8662V4.92438H9.13436V6.12438H8.97072L8.338 5.17893V6.12438H8.18527ZM9.70527 6.12438V5.0662H9.30891V4.92438H10.2616V5.0662H9.86527V6.12438H9.70527ZM10.4289 6.12438V4.92438H10.9635C11.0689 4.92438 11.1525 4.93529 11.2071 4.95711C11.2616 4.97893 11.3089 5.01529 11.3416 5.06983C11.3744 5.12438 11.3925 5.1862 11.3925 5.25165C11.3925 5.33529 11.3635 5.40802 11.3089 5.4662C11.2544 5.52438 11.1671 5.56074 11.0544 5.57893C11.098 5.60074 11.1271 5.61893 11.1489 5.63711C11.1962 5.68074 11.2398 5.73165 11.2798 5.79711L11.4871 6.12438H11.2871L11.1271 5.87347C11.0798 5.80074 11.0435 5.7462 11.0107 5.7062C10.9816 5.66983 10.9525 5.64074 10.9307 5.6262C10.9089 5.61165 10.8835 5.60074 10.858 5.59347C10.8398 5.58983 10.8107 5.5862 10.7707 5.5862H10.5853V6.12074H10.4289V6.12438ZM10.5853 5.45165H10.9271C10.9998 5.45165 11.058 5.44438 11.098 5.42983C11.1355 5.41662 11.168 5.39198 11.1908 5.35937C11.2137 5.32676 11.2257 5.28782 11.2253 5.24802C11.2253 5.18983 11.2035 5.14256 11.1635 5.1062C11.1235 5.06983 11.058 5.05165 10.9671 5.05165H10.5853V5.45165ZM11.5053 6.12438L11.9671 4.92438H12.138L12.6289 6.12438H12.4471L12.3053 5.76074H11.8035L11.6725 6.12438H11.5053ZM11.8507 5.62983H12.258L12.1344 5.29529C12.098 5.19347 12.0689 5.10983 12.0507 5.04438C12.0362 5.12074 12.0144 5.19711 11.9853 5.27347L11.8507 5.62983ZM13.6144 5.70256L13.7744 5.74256C13.7416 5.87347 13.6798 5.97165 13.5962 6.04074C13.5125 6.10983 13.4035 6.14256 13.2798 6.14256C13.1489 6.14256 13.0435 6.11711 12.9635 6.06256C12.8835 6.00802 12.8216 5.93165 12.778 5.83347C12.7344 5.73529 12.7162 5.6262 12.7162 5.50983C12.7162 5.3862 12.7416 5.27711 12.7889 5.18256C12.8362 5.08802 12.9053 5.01893 12.9925 4.97165C13.0798 4.92438 13.178 4.89893 13.2835 4.89893C13.4035 4.89893 13.5053 4.92802 13.5853 4.98983C13.6689 5.05165 13.7235 5.13529 13.7562 5.24802L13.5998 5.28438C13.5707 5.19711 13.5307 5.13165 13.4798 5.09165C13.4213 5.05087 13.3511 5.03043 13.2798 5.03347C13.1889 5.03347 13.1089 5.05529 13.0471 5.09893C12.9853 5.14256 12.9416 5.20438 12.9162 5.27711C12.8907 5.35347 12.8798 5.42983 12.8798 5.5062C12.8798 5.60802 12.8944 5.69893 12.9235 5.77529C12.9484 5.84648 12.9972 5.90686 13.0616 5.9462C13.1235 5.98256 13.1925 6.00438 13.2653 6.00438C13.3525 6.00438 13.4289 5.97893 13.4907 5.92802C13.5525 5.88074 13.5925 5.80438 13.6144 5.70256ZM14.2762 6.12438V5.0662H13.8798V4.92438H14.8325V5.0662H14.4362V6.12438H14.2762Z" fill="#525252"/>
<path d="M18.4618 16.2699L23.4836 7.6626C23.8 7.12078 23.6181 6.42624 23.0763 6.10987C22.9476 6.03459 22.8054 5.98541 22.6577 5.96513C22.51 5.94486 22.3598 5.95389 22.2156 5.99171C22.0713 6.02954 21.936 6.09541 21.8173 6.18557C21.6986 6.27572 21.5988 6.3884 21.5236 6.51715L16.5018 15.1281L15.6836 18.7826L18.4618 16.2699Z" fill="#525252"/>
<path d="M22.9268 8.61169L23.4795 7.6626C23.7959 7.12078 23.6141 6.42624 23.0723 6.10987C22.9436 6.03459 22.8013 5.98541 22.6536 5.96513C22.5059 5.94486 22.3557 5.95389 22.2115 5.99171C22.0673 6.02954 21.9319 6.09541 21.8132 6.18557C21.6945 6.27572 21.5947 6.3884 21.5195 6.51715L20.9668 7.46624L22.9268 8.61169Z" fill="#525252"/>
<path d="M23.211 8.12805L23.4837 7.6626C23.8001 7.12078 23.6182 6.42624 23.0764 6.10987C22.9478 6.03459 22.8055 5.98541 22.6578 5.96513C22.5101 5.94486 22.3599 5.95389 22.2157 5.99171C22.0715 6.02954 21.9361 6.09541 21.8174 6.18557C21.6987 6.27572 21.5989 6.3884 21.5237 6.51715L21.251 6.9826L23.211 8.12805Z" fill="#525252"/>
<path d="M16.5018 15.1279L15.6836 18.7788L18.4618 16.2697L16.5018 15.1279Z" fill="#525252"/>
<path d="M16.0654 17.0732L15.6836 18.7787L16.9818 17.6078L16.0654 17.0732Z" fill="#525252"/>
</g>
<defs>
<clipPath id="clip0_0_16480">
<rect width="24" height="24" fill="white" transform="translate(0 0.575195)"/>
</clipPath>
</defs>
</svg>
