<svg width="30" height="31" viewBox="0 0 30 31" fill="none" xmlns="http://www.w3.org/2000/svg">
<path d="M15.0003 27.1695C12.7072 27.1694 10.4655 26.4894 8.55887 25.2153C6.65222 23.9412 5.16619 22.1304 4.2887 20.0117C3.41121 17.8931 3.18167 15.5618 3.6291 13.3127C4.07653 11.0636 5.18084 8.99775 6.80238 7.37627C8.42392 5.75479 10.4899 4.65056 12.739 4.20323C14.9881 3.75589 17.3193 3.98552 19.4379 4.8631C21.5565 5.74068 23.3673 7.22678 24.6413 9.13348C25.9153 11.0402 26.5953 13.2818 26.5953 15.575C26.5917 18.649 25.3689 21.5961 23.1952 23.7698C21.0215 25.9434 18.0744 27.1661 15.0003 27.1695ZM15.0003 5.38672C12.9853 5.38682 11.0155 5.98443 9.34014 7.10399C7.66475 8.22355 6.35896 9.81477 5.58791 11.6764C4.81685 13.5381 4.61516 15.5866 5.00833 17.5629C5.4015 19.5392 6.37187 21.3546 7.79675 22.7794C9.22163 24.2042 11.037 25.1745 13.0133 25.5676C14.9896 25.9606 17.0381 25.7588 18.8998 24.9877C20.7614 24.2166 22.3526 22.9107 23.4721 21.2353C24.5916 19.5598 25.1891 17.59 25.1891 15.575C25.186 12.8738 24.1115 10.2841 22.2014 8.37406C20.2913 6.46405 17.7015 5.3897 15.0003 5.38672Z" fill="#525252"/>
<path d="M15.0007 21.6545C14.7527 21.6526 14.5153 21.5533 14.3399 21.3779C14.1644 21.2024 14.0651 20.965 14.0632 20.717C14.0625 20.6555 14.0688 20.5942 14.082 20.5342C14.0919 20.4729 14.1092 20.4131 14.1335 20.356C14.1587 20.3004 14.1885 20.2469 14.2226 20.1962C14.2924 20.0956 14.3797 20.0084 14.4804 19.9388C14.5297 19.9027 14.5832 19.8728 14.6398 19.8498C14.697 19.8259 14.7568 19.8086 14.8179 19.7982C14.9689 19.7684 15.1249 19.7763 15.2721 19.8213C15.4193 19.8663 15.5531 19.9469 15.6617 20.056C15.707 20.0973 15.7465 20.1446 15.7789 20.1967C15.813 20.2474 15.8428 20.3008 15.8679 20.3565C15.8922 20.4136 15.9095 20.4734 15.9195 20.5346C15.9327 20.5947 15.939 20.656 15.9382 20.7174C15.9364 20.9655 15.837 21.2029 15.6616 21.3783C15.4862 21.5537 15.2488 21.6526 15.0007 21.6545ZM11.5789 12.6821C11.4624 12.6816 11.3479 12.6521 11.2456 12.5964C11.1433 12.5407 11.0565 12.4604 10.9929 12.3628C10.9293 12.2652 10.891 12.1533 10.8813 12.0373C10.8717 11.9212 10.891 11.8045 10.9376 11.6978C10.9775 11.6078 11.9496 9.49463 15.0012 9.49463C15.1877 9.49463 15.3665 9.56871 15.4984 9.70057C15.6302 9.83243 15.7043 10.0113 15.7043 10.1978C15.7043 10.3842 15.6302 10.5631 15.4984 10.6949C15.3665 10.8268 15.1877 10.9009 15.0012 10.9009C12.896 10.9009 12.2464 12.2204 12.2196 12.2767C12.1621 12.3979 12.0713 12.5003 11.9579 12.5721C11.8445 12.6438 11.7131 12.682 11.5789 12.6821Z" fill="#525252"/>
<path d="M15 18.8092C14.8135 18.8092 14.6347 18.7351 14.5028 18.6032C14.371 18.4714 14.2969 18.2925 14.2969 18.1061V17.2192C14.2969 16.1359 15.2391 15.5378 16.1498 14.9598C17.4412 14.1395 18.2123 13.5676 17.7694 12.2518C17.685 12.0892 16.9978 10.9014 15 10.9014C14.8135 10.9014 14.6347 10.8273 14.5028 10.6954C14.371 10.5636 14.2969 10.3847 14.2969 10.1982C14.2969 10.0118 14.371 9.83292 14.5028 9.70106C14.6347 9.5692 14.8135 9.49512 15 9.49512C18.0516 9.49512 19.0237 11.6092 19.0636 11.6982C19.0716 11.7156 19.0781 11.7329 19.0842 11.7503C19.9486 14.2131 18.1158 15.3761 16.9036 16.1457C16.3411 16.5029 15.7031 16.9079 15.7031 17.2182V18.1061C15.7031 18.2925 15.629 18.4714 15.4972 18.6032C15.3653 18.7351 15.1865 18.8092 15 18.8092Z" fill="#525252"/>
</svg>
