<svg width="24" height="25" viewBox="0 0 24 25" fill="none" xmlns="http://www.w3.org/2000/svg">
<path d="M23.5 12.6057C23.5 18.957 18.3513 24.1057 12 24.1057C5.64873 24.1057 0.5 18.957 0.5 12.6057C0.5 6.25444 5.64873 1.10571 12 1.10571C18.3513 1.10571 23.5 6.25444 23.5 12.6057Z" fill="#525252" stroke="white"/>
<path d="M13.168 12.6056C13.168 15.4653 10.8656 17.7835 8.02537 17.7835C5.18522 17.7835 2.88281 15.4653 2.88281 12.6056C2.88281 9.74594 5.18522 7.42773 8.02542 7.42773C10.8656 7.42773 13.168 9.74594 13.168 12.6056ZM18.8095 12.6056C18.8095 15.2975 17.6583 17.4797 16.2382 17.4797C14.8182 17.4797 13.667 15.2975 13.667 12.6056C13.667 9.9137 14.8182 7.73153 16.2382 7.73153C17.6583 7.73153 18.8095 9.9137 18.8095 12.6056ZM21.1172 12.6056C21.1172 15.0174 20.7123 16.9726 20.2128 16.9726C19.7134 16.9726 19.3085 15.0174 19.3085 12.6056C19.3085 10.1938 19.7133 8.23862 20.2128 8.23862C20.7123 8.23862 21.1172 10.1938 21.1172 12.6056Z" fill="white"/>
</svg>
