<svg width="24" height="25" viewBox="0 0 24 25" fill="none" xmlns="http://www.w3.org/2000/svg">
<g clipPath="url(#clip0_0_16450)">
<path d="M22.1351 6.28757L12.3517 0.639137C12.2448 0.577416 12.1236 0.544922 12.0002 0.544922C11.8767 0.544922 11.7555 0.577416 11.6486 0.639137L1.86523 6.28757C1.75835 6.34928 1.66958 6.43804 1.60787 6.54492C1.54616 6.65181 1.51367 6.77306 1.51367 6.89648V18.1934C1.51367 18.3168 1.54616 18.438 1.60787 18.5449C1.66958 18.6518 1.75835 18.7406 1.86523 18.8023L11.6486 24.4507C11.7555 24.5124 11.8767 24.5449 12.0002 24.5449C12.1236 24.5449 12.2448 24.5124 12.3517 24.4507L22.1351 18.8023C22.242 18.7406 22.3308 18.6518 22.3925 18.5449C22.4542 18.438 22.4867 18.3168 22.4867 18.1934V6.89648C22.4867 6.77306 22.4542 6.65181 22.3925 6.54492C22.3308 6.43803 22.242 6.34927 22.1351 6.28757ZM9.36425 14.8043C9.36425 15.1926 9.04944 15.5074 8.66112 15.5074H7.90798C7.76917 15.5074 7.63346 15.4663 7.51796 15.3893C7.40246 15.3123 7.31234 15.2029 7.25895 15.0747L5.97519 11.9937V14.8043C5.94059 15.7362 4.6032 15.7355 4.56894 14.8043V10.2855C4.56894 9.89723 4.88375 9.58242 5.27206 9.58242H6.0252C6.16402 9.58241 6.29973 9.6235 6.41523 9.70051C6.53073 9.77751 6.62085 9.88698 6.67423 10.0151L7.958 13.0962V10.2855C7.99259 9.35362 9.32998 9.35432 9.36425 10.2855V14.8043ZM14.2595 10.9887H12.0002V12.2183H13.5064C14.4383 12.2529 14.4376 13.5903 13.5064 13.6246H12.0002V14.8043C11.9656 15.7362 10.6282 15.7355 10.5939 14.8043V10.2855C10.5939 9.89723 10.9087 9.58242 11.297 9.58242H14.2595C15.1915 9.61701 15.1908 10.9544 14.2595 10.9887ZM19.1548 10.9887H18.3517V14.8043C18.3171 15.7362 16.9797 15.7355 16.9455 14.8043V10.9887H16.1424C15.2105 10.9541 15.2112 9.61668 16.1424 9.58242H19.1549C20.0868 9.61701 20.0861 10.9544 19.1548 10.9887Z" fill="#525252"/>
</g>
<defs>
<clipPath id="clip0_0_16450">
<rect width="24" height="24" fill="white" transform="translate(0 0.544922)"/>
</clipPath>
</defs>
</svg>
