<svg width="24" height="25" viewBox="0 0 24 25" fill="none" xmlns="http://www.w3.org/2000/svg">
<g clipPath="url(#clip0_0_16490)">
<path d="M12 2.60571C17.523 2.60571 22 7.08271 22 12.6057C22 18.1287 17.523 22.6057 12 22.6057C6.477 22.6057 2 18.1287 2 12.6057C2 7.08271 6.477 2.60571 12 2.60571ZM14 14.0057L12.436 15.2567C12.3811 15.3007 12.3361 15.3557 12.3039 15.4182C12.2717 15.4807 12.2531 15.5493 12.2492 15.6195C12.2453 15.6898 12.2563 15.76 12.2814 15.8257C12.3066 15.8914 12.3453 15.951 12.395 16.0007L13.634 17.2397C13.8739 17.4799 14.0487 17.7773 14.142 18.1037L14.317 18.7167C14.3896 18.9739 14.5185 19.2117 14.6944 19.4129C14.8703 19.614 15.0888 19.7735 15.334 19.8797C16.2906 19.4402 17.1513 18.8167 17.867 18.0447L17.633 16.1677C17.5921 15.8412 17.4711 15.5297 17.281 15.2611C17.0909 14.9925 16.8374 14.7749 16.543 14.6277L15.073 13.8917C14.902 13.8061 14.71 13.7714 14.5198 13.7916C14.3296 13.8118 14.1492 13.8861 14 14.0057ZM12 4.60571C10.776 4.60467 9.56823 4.88494 8.46981 5.42487C7.37139 5.96481 6.41175 6.74996 5.665 7.71971L5.5 7.94071V9.62571C5.49987 10.2362 5.68601 10.8322 6.03355 11.3341C6.38109 11.8361 6.87349 12.22 7.445 12.4347L7.623 12.4947L8.913 12.8897C10.286 13.3097 11.623 12.1927 11.49 10.7937L11.471 10.6487L11.296 9.59971C11.2573 9.36734 11.3019 9.12878 11.4219 8.92608C11.542 8.72338 11.7297 8.56955 11.952 8.49171L12.06 8.46171L12.672 8.32171C13.0192 8.24235 13.3471 8.09423 13.6361 7.8861C13.9252 7.67797 14.1696 7.41404 14.355 7.1099C14.5404 6.80576 14.663 6.46756 14.7155 6.11527C14.7681 5.76297 14.7496 5.40372 14.661 5.05871C13.8061 4.75784 12.9063 4.60465 12 4.60571Z" fill="#525252"/>
</g>
<defs>
<clipPath id="clip0_0_16490">
<rect width="24" height="24" fill="white" transform="translate(0 0.605713)"/>
</clipPath>
</defs>
</svg>
